<svg width="59" height="28" viewBox="0 0 59 28" fill="none" xmlns="http://www.w3.org/2000/svg">
<path d="M5.87028 5.93185V22.5719H10.7827C13.2966 22.5719 15.0494 21.3322 16.0411 18.853C16.5831 17.4922 16.8541 15.8721 16.8541 13.9924C16.8541 11.3978 16.4447 9.40862 15.626 8.02483C14.8188 6.62951 13.2044 5.93185 10.7827 5.93185H5.87028ZM11.6822 1.50374C13.262 1.5268 14.5766 1.7113 15.626 2.05725C17.4134 2.64536 18.8606 3.72356 19.9676 5.29185C20.8555 6.56032 21.4609 7.93258 21.7838 9.40862C22.1067 10.8847 22.2682 12.2915 22.2682 13.6292C22.2682 17.0194 21.5878 19.8908 20.2271 22.2432C18.382 25.4144 15.5337 27 11.6822 27H0.698383V1.50374H11.6822ZM43.4401 9.46051C43.0365 7.71924 42.0505 6.50266 40.4822 5.81077C39.6058 5.43023 38.6314 5.23996 37.559 5.23996C35.5064 5.23996 33.817 6.01834 32.4909 7.5751C31.1763 9.12033 30.519 11.4497 30.519 14.5632C30.519 17.6998 31.2339 19.9196 32.6638 21.2227C34.0938 22.5258 35.7197 23.1773 37.5417 23.1773C39.3291 23.1773 40.7936 22.6641 41.9352 21.6378C43.0768 20.6 43.7803 19.245 44.0455 17.573H38.1471V13.3178H48.7677V27H45.239L44.7028 23.8173C43.6765 25.0281 42.754 25.8814 41.9352 26.3773C40.5284 27.2422 38.7986 27.6746 36.746 27.6746C33.3673 27.6746 30.5997 26.5041 28.4433 24.1632C26.1946 21.8108 25.0703 18.5935 25.0703 14.5113C25.0703 10.383 26.2062 7.07348 28.4779 4.58266C30.7496 2.09185 33.7536 0.846438 37.4898 0.846438C40.7302 0.846438 43.3305 1.67094 45.2909 3.31996C47.2628 4.95744 48.3929 7.00429 48.6812 9.46051H43.4401ZM53.386 21.8454H58.6271V27H53.386V21.8454Z" fill="white"/>
</svg>
